<svg width="770" height="224" viewBox="0 0 770 224" fill="none" xmlns="http://www.w3.org/2000/svg">
<line x1="105.394" y1="197.607" x2="664.997" y2="196.609" stroke="#4D4B4D" stroke-width="3"/>
<path d="M193.658 219.293L192.025 210.84H193.713L194.494 216.019L194.627 216.996L194.798 216.019L195.9 210.84H197.127L198.228 216.004L198.408 217.027L198.556 215.996L199.314 210.84H201.009L199.377 219.293H197.791L196.697 214.496L196.502 213.449L196.314 214.496L195.244 219.293H193.658ZM205.869 219.449C205.244 219.449 204.671 219.345 204.151 219.137C203.635 218.928 203.192 218.639 202.823 218.269C202.453 217.905 202.166 217.475 201.963 216.98C201.765 216.48 201.666 215.941 201.666 215.363V215.043C201.666 214.381 201.77 213.782 201.979 213.246C202.187 212.71 202.474 212.251 202.838 211.871C203.203 211.491 203.625 211.199 204.104 210.996C204.588 210.788 205.104 210.683 205.651 210.683C206.26 210.683 206.799 210.788 207.268 210.996C207.737 211.199 208.13 211.483 208.448 211.848C208.765 212.217 209.005 212.657 209.166 213.168C209.328 213.678 209.408 214.236 209.408 214.84V215.644H203.549V215.683C203.606 216.053 203.695 216.363 203.815 216.613C203.935 216.863 204.099 217.087 204.307 217.285C204.515 217.493 204.76 217.655 205.041 217.769C205.328 217.884 205.64 217.941 205.979 217.941C206.442 217.941 206.875 217.853 207.276 217.676C207.677 217.493 208.007 217.236 208.268 216.902L209.268 217.871C208.987 218.277 208.554 218.642 207.971 218.965C207.393 219.288 206.692 219.449 205.869 219.449ZM205.643 212.199C205.377 212.199 205.13 212.249 204.901 212.348C204.677 212.441 204.476 212.577 204.299 212.754C204.122 212.936 203.974 213.155 203.854 213.41C203.734 213.665 203.645 213.954 203.588 214.277H207.565V214.152C207.565 213.907 207.52 213.665 207.432 213.426C207.343 213.181 207.218 212.967 207.057 212.785C206.901 212.608 206.703 212.467 206.463 212.363C206.229 212.254 205.955 212.199 205.643 212.199ZM211.323 210.84H215.808V217.746H218.292V219.293H211.323V217.746H213.925V212.394H211.323V210.84ZM213.753 208.652C213.753 208.501 213.779 208.363 213.831 208.238C213.883 208.108 213.959 207.996 214.058 207.902C214.151 207.814 214.263 207.746 214.393 207.699C214.529 207.647 214.68 207.621 214.847 207.621C215.128 207.621 215.354 207.694 215.526 207.84C215.703 207.98 215.805 208.163 215.831 208.387C215.867 208.616 215.828 208.816 215.714 208.988C215.599 209.155 215.433 209.267 215.214 209.324C215.104 209.423 214.974 209.488 214.823 209.519C214.672 209.551 214.505 209.538 214.323 209.48C214.136 209.423 213.992 209.322 213.893 209.176C213.8 209.025 213.753 208.85 213.753 208.652ZM219.621 215.004C219.621 214.363 219.699 213.78 219.855 213.254C220.011 212.723 220.238 212.267 220.535 211.887C220.832 211.506 221.188 211.212 221.605 211.004C222.027 210.79 222.501 210.683 223.027 210.683C223.339 210.683 223.623 210.717 223.878 210.785C224.134 210.848 224.365 210.941 224.574 211.066C224.709 211.144 224.837 211.238 224.957 211.348C225.076 211.452 225.188 211.566 225.293 211.691L225.371 210.84H227.066V219.058C227.066 219.626 226.972 220.129 226.785 220.566C226.602 221.009 226.345 221.384 226.011 221.691C225.673 221.993 225.266 222.223 224.793 222.379C224.324 222.54 223.806 222.621 223.238 222.621C222.998 222.621 222.735 222.595 222.449 222.543C222.162 222.491 221.876 222.41 221.589 222.301C221.303 222.191 221.03 222.048 220.769 221.871C220.509 221.694 220.285 221.48 220.097 221.23L220.98 220.098C221.131 220.28 221.293 220.436 221.464 220.566C221.641 220.702 221.821 220.811 222.003 220.894C222.186 220.978 222.371 221.038 222.558 221.074C222.746 221.116 222.936 221.137 223.128 221.137C223.462 221.137 223.756 221.09 224.011 220.996C224.272 220.902 224.493 220.767 224.675 220.59C224.842 220.418 224.97 220.207 225.058 219.957C225.152 219.707 225.199 219.423 225.199 219.105V218.519C225.089 218.634 224.975 218.741 224.855 218.84C224.74 218.939 224.615 219.025 224.48 219.098C224.277 219.212 224.053 219.298 223.808 219.355C223.563 219.418 223.298 219.449 223.011 219.449C222.49 219.449 222.022 219.342 221.605 219.129C221.188 218.91 220.832 218.608 220.535 218.223C220.243 217.842 220.016 217.392 219.855 216.871C219.699 216.345 219.621 215.777 219.621 215.168V215.004ZM221.496 215.168C221.496 215.543 221.532 215.897 221.605 216.23C221.683 216.564 221.806 216.853 221.972 217.098C222.134 217.353 222.339 217.553 222.589 217.699C222.839 217.84 223.136 217.91 223.48 217.91C223.694 217.91 223.886 217.887 224.058 217.84C224.235 217.793 224.394 217.728 224.535 217.644C224.675 217.556 224.8 217.449 224.91 217.324C225.019 217.199 225.115 217.061 225.199 216.91V213.207C225.115 213.051 225.014 212.91 224.894 212.785C224.78 212.66 224.647 212.553 224.496 212.465C224.36 212.392 224.209 212.335 224.043 212.293C223.876 212.246 223.694 212.223 223.496 212.223C223.147 212.223 222.847 212.295 222.597 212.441C222.347 212.587 222.141 212.788 221.98 213.043C221.813 213.298 221.691 213.595 221.613 213.933C221.535 214.267 221.496 214.624 221.496 215.004V215.168ZM230.699 212.043C230.809 211.876 230.931 211.723 231.067 211.582C231.202 211.441 231.345 211.319 231.496 211.215C231.731 211.043 231.988 210.913 232.27 210.824C232.556 210.73 232.858 210.683 233.176 210.683C233.619 210.683 234.022 210.749 234.387 210.879C234.757 211.009 235.072 211.212 235.332 211.488C235.593 211.764 235.793 212.118 235.934 212.551C236.08 212.978 236.153 213.491 236.153 214.09V219.293H234.285V214.074C234.285 213.762 234.246 213.488 234.168 213.254C234.095 213.019 233.986 212.829 233.84 212.683C233.689 212.527 233.504 212.413 233.285 212.34C233.072 212.262 232.824 212.223 232.543 212.223C232.324 212.223 232.116 212.249 231.918 212.301C231.725 212.353 231.548 212.428 231.387 212.527C231.251 212.605 231.124 212.699 231.004 212.808C230.89 212.918 230.788 213.04 230.699 213.176V219.293H228.832V207.293H230.699V212.043ZM241.552 208.777V210.84H244.731V212.238H241.552V216.277C241.552 216.59 241.588 216.853 241.661 217.066C241.739 217.275 241.846 217.439 241.981 217.558C242.117 217.683 242.278 217.772 242.466 217.824C242.653 217.876 242.859 217.902 243.083 217.902C243.244 217.902 243.411 217.894 243.583 217.879C243.755 217.863 243.921 217.842 244.083 217.816C244.239 217.795 244.385 217.772 244.52 217.746C244.661 217.715 244.778 217.689 244.872 217.668L245.075 218.957C244.94 219.04 244.776 219.113 244.583 219.176C244.395 219.233 244.192 219.282 243.973 219.324C243.755 219.366 243.526 219.397 243.286 219.418C243.052 219.444 242.817 219.457 242.583 219.457C242.156 219.457 241.763 219.4 241.403 219.285C241.049 219.165 240.744 218.98 240.489 218.73C240.234 218.486 240.033 218.17 239.888 217.785C239.747 217.4 239.677 216.936 239.677 216.394V212.238H237.63V210.84H239.677V208.777H241.552ZM254.013 219.293H246.38V217.996L250.083 213.965C250.391 213.626 250.649 213.324 250.857 213.058C251.065 212.788 251.235 212.54 251.365 212.316C251.49 212.092 251.578 211.884 251.63 211.691C251.688 211.493 251.716 211.295 251.716 211.098C251.716 210.832 251.677 210.59 251.599 210.371C251.521 210.152 251.406 209.965 251.255 209.808C251.104 209.652 250.922 209.53 250.708 209.441C250.5 209.353 250.266 209.308 250.005 209.308C249.672 209.308 249.383 209.355 249.138 209.449C248.893 209.543 248.69 209.676 248.529 209.848C248.362 210.03 248.237 210.251 248.154 210.512C248.07 210.767 248.029 211.058 248.029 211.387H246.154C246.154 210.892 246.245 210.426 246.427 209.988C246.61 209.545 246.87 209.16 247.208 208.832C247.542 208.504 247.948 208.243 248.427 208.051C248.912 207.858 249.451 207.762 250.044 207.762C250.602 207.762 251.099 207.842 251.537 208.004C251.979 208.165 252.352 208.389 252.654 208.676C252.951 208.962 253.177 209.306 253.333 209.707C253.49 210.103 253.568 210.54 253.568 211.019C253.568 211.379 253.508 211.728 253.388 212.066C253.274 212.4 253.115 212.73 252.912 213.058C252.703 213.387 252.456 213.717 252.169 214.051C251.888 214.384 251.581 214.728 251.248 215.082L248.716 217.785H254.013V219.293ZM259.858 219.051C259.858 219.613 259.72 220.183 259.443 220.762C259.173 221.345 258.813 221.837 258.365 222.238L257.318 221.683C257.542 221.314 257.714 220.923 257.834 220.512C257.959 220.1 258.022 219.637 258.022 219.121V217.473H259.858V219.051ZM271.952 219.293H264.319V217.996L268.022 213.965C268.33 213.626 268.587 213.324 268.796 213.058C269.004 212.788 269.173 212.54 269.303 212.316C269.428 212.092 269.517 211.884 269.569 211.691C269.626 211.493 269.655 211.295 269.655 211.098C269.655 210.832 269.616 210.59 269.538 210.371C269.46 210.152 269.345 209.965 269.194 209.808C269.043 209.652 268.861 209.53 268.647 209.441C268.439 209.353 268.205 209.308 267.944 209.308C267.611 209.308 267.322 209.355 267.077 209.449C266.832 209.543 266.629 209.676 266.468 209.848C266.301 210.03 266.176 210.251 266.093 210.512C266.009 210.767 265.968 211.058 265.968 211.387H264.093C264.093 210.892 264.184 210.426 264.366 209.988C264.548 209.545 264.809 209.16 265.147 208.832C265.481 208.504 265.887 208.243 266.366 208.051C266.85 207.858 267.389 207.762 267.983 207.762C268.54 207.762 269.038 207.842 269.475 208.004C269.918 208.165 270.29 208.389 270.593 208.676C270.889 208.962 271.116 209.306 271.272 209.707C271.428 210.103 271.507 210.54 271.507 211.019C271.507 211.379 271.447 211.728 271.327 212.066C271.212 212.4 271.053 212.73 270.85 213.058C270.642 213.387 270.395 213.717 270.108 214.051C269.827 214.384 269.52 214.728 269.186 215.082L266.655 217.785H271.952V219.293Z" fill="#C9C9C9"/>
<path d="M257.161 144.714L252.948 137.158L254.564 136.671L256.935 141.363L257.368 142.252L257.227 141.275L256.658 136.038L257.832 135.684L260.505 140.269L260.998 141.189L260.817 140.167L259.926 135.052L261.549 134.562L262.636 143.061L261.117 143.519L258.567 139.28L258.052 138.342L258.2 139.391L258.679 144.255L257.161 144.714ZM268.9 141.333C268.302 141.513 267.721 141.58 267.157 141.533C266.598 141.484 266.084 141.337 265.614 141.093C265.145 140.854 264.737 140.528 264.387 140.117C264.041 139.7 263.777 139.216 263.596 138.667L263.495 138.363C263.288 137.735 263.2 137.136 263.231 136.567C263.263 135.997 263.393 135.479 263.623 135.012C263.853 134.546 264.165 134.147 264.561 133.816C264.959 133.478 265.42 133.23 265.943 133.072C266.527 132.896 267.075 132.839 267.59 132.901C268.102 132.959 268.567 133.115 268.986 133.369C269.406 133.628 269.773 133.977 270.088 134.415C270.402 134.853 270.654 135.359 270.844 135.933L271.096 136.697L265.487 138.39L265.499 138.427C265.67 138.762 265.851 139.031 266.044 139.233C266.238 139.436 266.465 139.601 266.726 139.729C266.991 139.867 267.276 139.949 267.581 139.977C267.891 140.003 268.208 139.967 268.532 139.869C268.976 139.735 269.362 139.526 269.691 139.242C270.018 138.953 270.253 138.613 270.398 138.221L271.659 138.852C271.517 139.319 271.218 139.79 270.76 140.265C270.308 140.739 269.688 141.095 268.9 141.333ZM266.411 134.513C266.157 134.59 265.935 134.709 265.747 134.869C265.562 135.023 265.412 135.209 265.298 135.429C265.186 135.653 265.113 135.903 265.078 136.18C265.043 136.457 265.049 136.758 265.095 137.081L268.902 135.931L268.863 135.813C268.786 135.58 268.668 135.363 268.508 135.161C268.347 134.954 268.16 134.788 267.948 134.661C267.743 134.538 267.51 134.462 267.248 134.432C266.989 134.396 266.71 134.423 266.411 134.513ZM271.423 131.581L275.716 130.285L277.881 136.843L280.259 136.125L280.744 137.594L274.072 139.608L273.588 138.139L276.078 137.387L274.401 132.305L271.91 133.057L271.423 131.581ZM273.063 128.801C273.016 128.658 272.997 128.519 273.008 128.386C273.017 128.247 273.054 128.119 273.12 128.001C273.182 127.89 273.268 127.793 273.378 127.711C273.491 127.623 273.627 127.554 273.787 127.506C274.056 127.425 274.296 127.429 274.506 127.517C274.72 127.6 274.874 127.743 274.969 127.949C275.076 128.156 275.102 128.357 275.046 128.554C274.988 128.745 274.864 128.9 274.672 129.017C274.599 129.143 274.494 129.242 274.36 129.316C274.225 129.389 274.061 129.425 273.869 129.423C273.671 129.423 273.502 129.368 273.362 129.258C273.225 129.142 273.125 128.989 273.063 128.801ZM280.671 133.137C280.471 132.529 280.363 131.952 280.347 131.408C280.33 130.858 280.404 130.36 280.569 129.913C280.734 129.466 280.984 129.083 281.317 128.765C281.654 128.44 282.075 128.202 282.578 128.05C282.877 127.96 283.16 127.91 283.425 127.9C283.689 127.886 283.94 127.908 284.179 127.966C284.333 128.002 284.485 128.054 284.634 128.123C284.781 128.187 284.924 128.264 285.063 128.352L284.871 127.521L286.494 127.031L289.07 134.836C289.248 135.375 289.316 135.879 289.273 136.349C289.238 136.822 289.108 137.252 288.886 137.641C288.656 138.025 288.339 138.36 287.934 138.646C287.536 138.934 287.065 139.161 286.522 139.325C286.292 139.394 286.033 139.445 285.742 139.479C285.451 139.512 285.152 139.518 284.843 139.497C284.535 139.476 284.228 139.419 283.923 139.326C283.619 139.233 283.337 139.095 283.079 138.912L283.569 137.581C283.771 137.711 283.975 137.812 284.18 137.886C284.392 137.964 284.598 138.016 284.799 138.042C285 138.069 285.195 138.072 285.386 138.052C285.579 138.038 285.767 138.003 285.952 137.947C286.271 137.851 286.538 137.721 286.753 137.558C286.973 137.394 287.142 137.201 287.261 136.981C287.367 136.769 287.423 136.532 287.429 136.269C287.441 136.005 287.397 135.721 287.297 135.42L287.113 134.863C287.045 135.004 286.968 135.138 286.885 135.267C286.806 135.394 286.713 135.512 286.607 135.62C286.448 135.788 286.261 135.934 286.044 136.059C285.829 136.189 285.585 136.296 285.311 136.378C284.812 136.529 284.33 136.563 283.864 136.481C283.397 136.393 282.96 136.21 282.555 135.929C282.157 135.653 281.799 135.29 281.481 134.842C281.167 134.388 280.914 133.872 280.723 133.293L280.671 133.137ZM282.518 132.751C282.635 133.107 282.781 133.433 282.956 133.728C283.135 134.022 283.343 134.261 283.579 134.446C283.813 134.641 284.073 134.772 284.358 134.839C284.642 134.9 284.948 134.881 285.277 134.781C285.481 134.72 285.659 134.642 285.808 134.548C285.963 134.452 286.095 134.344 286.203 134.224C286.31 134.1 286.397 133.962 286.462 133.812C286.528 133.662 286.577 133.503 286.609 133.335L285.448 129.819C285.32 129.694 285.178 129.59 285.024 129.506C284.875 129.42 284.715 129.357 284.543 129.317C284.39 129.287 284.227 129.276 284.055 129.285C283.881 129.288 283.699 129.319 283.509 129.376C283.175 129.477 282.911 129.633 282.718 129.843C282.524 130.054 282.39 130.304 282.315 130.593C282.236 130.884 282.212 131.201 282.243 131.545C282.273 131.884 282.347 132.234 282.466 132.595L282.518 132.751ZM290.349 127.123C290.402 126.934 290.471 126.752 290.556 126.58C290.642 126.407 290.741 126.249 290.853 126.107C291.023 125.876 291.229 125.678 291.471 125.512C291.715 125.34 291.99 125.209 292.294 125.117C292.718 124.989 293.125 124.934 293.515 124.952C293.909 124.969 294.275 125.071 294.611 125.258C294.946 125.445 295.249 125.723 295.519 126.093C295.793 126.456 296.024 126.922 296.211 127.491L297.842 132.432L296.055 132.972L294.419 128.016C294.321 127.719 294.198 127.471 294.05 127.271C293.906 127.069 293.742 126.92 293.557 126.824C293.363 126.719 293.15 126.664 292.918 126.658C292.689 126.645 292.44 126.68 292.171 126.761C291.961 126.824 291.77 126.909 291.597 127.016C291.429 127.121 291.283 127.244 291.159 127.385C291.054 127.498 290.961 127.624 290.881 127.762C290.806 127.899 290.747 128.045 290.704 128.199L292.622 134.008L290.834 134.548L287.073 123.152L288.86 122.613L290.349 127.123ZM299.715 120.886L300.361 122.845L303.405 121.926L303.844 123.253L300.8 124.172L302.066 128.008C302.164 128.305 302.281 128.544 302.418 128.726C302.558 128.901 302.711 129.026 302.879 129.1C303.047 129.18 303.23 129.217 303.426 129.213C303.621 129.208 303.826 129.173 304.041 129.109C304.195 129.062 304.353 129.006 304.512 128.942C304.672 128.877 304.825 128.809 304.971 128.738C305.114 128.673 305.247 128.609 305.368 128.545C305.493 128.474 305.597 128.416 305.68 128.369L306.279 129.534C306.175 129.653 306.041 129.769 305.876 129.884C305.714 129.993 305.536 130.099 305.339 130.201C305.143 130.304 304.933 130.4 304.71 130.489C304.494 130.582 304.274 130.662 304.05 130.729C303.641 130.853 303.246 130.912 302.866 130.907C302.49 130.896 302.14 130.808 301.817 130.645C301.496 130.486 301.206 130.245 300.945 129.921C300.69 129.595 300.477 129.176 300.307 128.661L299.005 124.714L297.045 125.306L296.607 123.978L298.566 123.386L297.92 121.428L299.715 120.886ZM314.941 127.27L307.634 129.476L307.227 128.245L309.509 123.346C309.697 122.936 309.849 122.575 309.965 122.262C310.079 121.945 310.164 121.661 310.218 121.411C310.268 121.162 310.287 120.938 310.277 120.74C310.27 120.536 310.235 120.34 310.173 120.152C310.09 119.899 309.976 119.681 309.833 119.496C309.69 119.31 309.521 119.165 309.328 119.061C309.134 118.956 308.921 118.892 308.689 118.87C308.462 118.846 308.224 118.872 307.974 118.947C307.655 119.044 307.393 119.172 307.188 119.331C306.983 119.491 306.83 119.676 306.73 119.886C306.627 120.107 306.577 120.353 306.579 120.625C306.579 120.891 306.631 121.18 306.733 121.492L304.938 122.034C304.783 121.564 304.725 121.095 304.762 120.627C304.798 120.154 304.926 119.712 305.147 119.303C305.364 118.895 305.671 118.53 306.069 118.209C306.473 117.886 306.958 117.639 307.527 117.467C308.06 117.306 308.562 117.239 309.031 117.266C309.506 117.291 309.932 117.396 310.311 117.581C310.685 117.767 311.01 118.028 311.285 118.364C311.559 118.694 311.771 119.087 311.921 119.542C312.034 119.884 312.086 120.232 312.077 120.588C312.072 120.938 312.024 121.298 311.932 121.668C311.835 122.04 311.702 122.426 311.532 122.825C311.368 123.223 311.181 123.638 310.973 124.071L309.397 127.369L314.468 125.838L314.941 127.27ZM320.46 125.351C320.636 125.885 320.683 126.467 320.6 127.095C320.523 127.728 320.333 128.299 320.03 128.809L318.854 128.585C318.953 128.169 318.995 127.748 318.981 127.323C318.971 126.896 318.886 126.438 318.724 125.948L318.207 124.383L319.965 123.852L320.46 125.351ZM330.02 122.718L328.217 123.262L325.377 114.656L322.922 116.515L322.406 114.949L326.342 111.95L326.454 111.916L330.02 122.718Z" fill="#C9C9C9"/>
<line x1="104.969" y1="197.669" x2="664.573" y2="31.562" stroke="#4D4B4D" stroke-width="3"/>
<line x1="105.822" y1="32.0116" x2="665.425" y2="197.562" stroke="#4D4B4D" stroke-width="3"/>
<path d="M253.255 57.9297L254.466 49.449L256.075 49.959L255.124 55.0893L254.931 56.0522L255.414 55.1814L258.16 50.6201L259.329 50.9907L258.689 56.2031L258.525 57.2245L259.004 56.2949L261.414 51.6518L263.03 52.1642L258.707 59.658L257.195 59.1787L257.723 54.3156L257.879 53.2674L257.358 54.2L254.767 58.409L253.255 57.9297ZM264.845 61.7678C264.249 61.5789 263.737 61.3074 263.309 60.9531C262.885 60.6004 262.558 60.1935 262.326 59.7323C262.093 59.2761 261.961 58.7835 261.929 58.2546C261.904 57.7224 261.986 57.1831 262.176 56.6368L262.281 56.3342C262.497 55.7092 262.793 55.1747 263.167 54.7308C263.541 54.2868 263.964 53.9403 264.436 53.6912C264.908 53.4422 265.406 53.2941 265.929 53.2469C266.459 53.1965 266.985 53.2539 267.506 53.4191C268.087 53.6033 268.567 53.8646 268.945 54.2031C269.325 54.5367 269.607 54.9238 269.791 55.3643C269.973 55.8097 270.057 56.298 270.044 56.829C270.031 57.3601 269.925 57.9111 269.727 58.482L269.464 59.2423L263.878 57.4716L263.866 57.5085C263.799 57.8752 263.782 58.1948 263.814 58.4672C263.847 58.7396 263.93 59.0008 264.064 59.2508C264.194 59.5106 264.375 59.7372 264.605 59.9304C264.841 60.1253 265.12 60.2738 265.443 60.3761C265.884 60.5162 266.325 60.5632 266.766 60.5171C267.208 60.466 267.607 60.3224 267.965 60.0861L268.601 61.3037C268.2 61.6025 267.668 61.8164 267.007 61.9452C266.35 62.0756 265.629 62.0165 264.845 61.7678ZM267.002 54.8489C266.749 54.7686 266.497 54.7406 266.246 54.7648C266.002 54.7857 265.766 54.8531 265.54 54.9669C265.311 55.0856 265.098 55.2475 264.9 55.4524C264.703 55.6574 264.524 55.9037 264.363 56.1915L268.154 57.3933L268.195 57.2752C268.275 57.0439 268.312 56.8017 268.306 56.5485C268.302 56.2905 268.253 56.0509 268.158 55.8299C268.067 55.6153 267.925 55.4226 267.73 55.2518C267.543 55.0776 267.3 54.9433 267.002 54.8489ZM272.862 55.281L277.137 56.6363L274.876 63.1619L277.244 63.9127L276.737 65.3743L270.095 63.2683L270.601 61.8067L273.081 62.5929L274.833 57.5363L272.353 56.7501L272.862 55.281ZM275.894 53.9484C275.944 53.8056 276.014 53.6831 276.104 53.5807C276.197 53.4734 276.305 53.3905 276.43 53.3318C276.549 53.2764 276.677 53.2463 276.817 53.2414C276.963 53.2331 277.116 53.2541 277.274 53.3045C277.543 53.3895 277.735 53.5269 277.851 53.7166C277.973 53.903 278.011 54.1059 277.962 54.3254C277.922 54.553 277.819 54.7306 277.653 54.8584C277.49 54.9813 277.294 55.0367 277.067 55.0247C276.93 55.0852 276.785 55.1073 276.631 55.0912C276.476 55.0751 276.322 55.0124 276.167 54.9032C276.007 54.7924 275.903 54.6532 275.857 54.4855C275.817 54.3144 275.829 54.1354 275.894 53.9484ZM279.408 61.7232C279.618 61.1179 279.883 60.5903 280.205 60.1405C280.527 59.6857 280.893 59.3236 281.3 59.054C281.708 58.7845 282.144 58.6143 282.609 58.5433C283.081 58.469 283.568 58.5114 284.07 58.6704C284.368 58.7648 284.627 58.8826 284.848 59.0237C285.071 59.1599 285.261 59.3185 285.419 59.4996C285.522 59.6143 285.613 59.7414 285.692 59.881C285.772 60.0156 285.841 60.1577 285.899 60.3073L286.253 59.5263L287.869 60.0386L285.178 67.8045C284.992 68.3409 284.738 68.7875 284.416 69.1442C284.098 69.5074 283.729 69.7838 283.311 69.9734C282.889 70.1566 282.427 70.2503 281.924 70.2547C281.424 70.2656 280.904 70.1853 280.363 70.0137C280.134 69.9413 279.892 69.8372 279.636 69.7015C279.38 69.5657 279.133 69.4028 278.896 69.2129C278.659 69.023 278.445 68.805 278.255 68.559C278.065 68.313 277.921 68.0435 277.824 67.7506L279.036 66.947C279.121 67.1649 279.223 67.3614 279.345 67.5363C279.469 67.7178 279.605 67.8755 279.751 68.0093C279.898 68.1431 280.054 68.2556 280.221 68.3467C280.386 68.4427 280.561 68.5199 280.744 68.5781C281.062 68.6789 281.358 68.7235 281.632 68.712C281.911 68.7021 282.166 68.6411 282.398 68.5289C282.613 68.4168 282.804 68.2561 282.97 68.0466C283.141 67.8387 283.279 67.5847 283.383 67.2845L283.575 66.7308C283.433 66.806 283.289 66.8723 283.142 66.9296C283 66.9885 282.853 67.0319 282.7 67.0599C282.469 67.1068 282.227 67.1203 281.975 67.1004C281.722 67.0855 281.458 67.0348 281.185 66.9482C280.689 66.7908 280.277 66.5483 279.949 66.2206C279.624 65.8879 279.383 65.4947 279.226 65.0408C279.072 64.5934 279.004 64.0992 279.02 63.5583C279.044 63.014 279.155 62.454 279.355 61.8782L279.408 61.7232ZM281.142 62.4449C281.019 62.7992 280.938 63.1449 280.898 63.4819C280.864 63.8204 280.886 64.1305 280.964 64.4122C281.035 64.7022 281.165 64.9538 281.356 65.1671C281.548 65.3756 281.808 65.5317 282.136 65.6356C282.339 65.7001 282.531 65.7362 282.71 65.7439C282.894 65.7531 283.067 65.7396 283.228 65.7034C283.391 65.6622 283.545 65.5991 283.69 65.514C283.836 65.429 283.973 65.3277 284.101 65.2101L285.314 61.7111C285.286 61.5383 285.235 61.3747 285.162 61.2204C285.093 61.0676 285.002 60.9266 284.887 60.7973C284.781 60.6875 284.656 60.5877 284.511 60.498C284.367 60.4033 284.201 60.3261 284.013 60.2663C283.68 60.1608 283.371 60.1392 283.085 60.2014C282.799 60.2637 282.537 60.391 282.299 60.5833C282.057 60.7741 281.843 61.0176 281.658 61.3139C281.474 61.6053 281.32 61.9306 281.196 62.2898L281.142 62.4449ZM290.938 62.2735C291.097 62.1491 291.264 62.0409 291.439 61.9489C291.614 61.857 291.791 61.7846 291.969 61.7318C292.249 61.6403 292.537 61.5951 292.834 61.5965C293.138 61.5945 293.441 61.6415 293.744 61.7375C294.166 61.8713 294.53 62.0548 294.835 62.288C295.144 62.5228 295.378 62.8099 295.536 63.1495C295.694 63.489 295.769 63.8842 295.762 64.3352C295.761 64.7828 295.662 65.2896 295.466 65.8556L293.763 70.7719L291.983 70.2077L293.692 65.2765C293.794 64.9812 293.846 64.7111 293.848 64.466C293.856 64.2225 293.814 64.0098 293.722 63.8279C293.63 63.6347 293.491 63.4705 293.306 63.3355C293.128 63.1972 292.905 63.0855 292.637 63.0005C292.429 62.9344 292.221 62.896 292.016 62.8854C291.815 62.8764 291.621 62.8942 291.435 62.939C291.28 62.9719 291.128 63.0219 290.978 63.089C290.833 63.1577 290.696 63.2427 290.567 63.3439L288.565 69.124L286.785 68.5597L290.714 57.221L292.493 57.7853L290.938 62.2735ZM302.352 62.4675L301.677 64.4163L304.708 65.3772L304.25 66.6986L301.219 65.7377L299.897 69.5541C299.795 69.8494 299.743 70.109 299.743 70.3328C299.749 70.5532 299.797 70.7405 299.887 70.8946C299.975 71.0537 300.1 71.1861 300.262 71.292C300.423 71.3979 300.611 71.4847 300.824 71.5523C300.978 71.6011 301.14 71.6441 301.309 71.6813C301.478 71.7185 301.643 71.7492 301.806 71.7733C301.962 71.8009 302.108 71.8228 302.246 71.8391C302.39 71.8521 302.51 71.8629 302.607 71.8715L302.378 73.151C302.222 73.1888 302.042 73.2081 301.837 73.2089C301.64 73.2064 301.43 73.1917 301.208 73.165C300.986 73.1383 300.757 73.0985 300.522 73.0458C300.29 72.9996 300.062 72.9411 299.839 72.8702C299.432 72.7412 299.076 72.5682 298.771 72.3513C298.472 72.1311 298.242 71.8643 298.081 71.551C297.918 71.2425 297.83 70.8842 297.817 70.476C297.809 70.0693 297.894 69.61 298.071 69.0982L299.432 65.171L297.481 64.5524L297.939 63.2311L299.89 63.8497L300.565 61.9008L302.352 62.4675ZM308.703 75.5085L306.908 74.9395L309.875 66.3764L306.747 66.5071L307.287 64.9495L312.316 64.7249L312.427 64.7603L308.703 75.5085ZM316.439 77.7069C316.255 78.2384 315.936 78.7356 315.484 79.1984C315.035 79.6678 314.531 80.0242 313.973 80.2678L313.157 79.4273C313.491 79.1456 313.783 78.8284 314.032 78.4758C314.286 78.1248 314.497 77.7057 314.666 77.2185L315.205 75.6609L316.956 76.2158L316.439 77.7069ZM327.888 81.5908L320.613 79.2841L321.037 78.0587L325.887 75.3687C326.291 75.1417 326.635 74.9341 326.921 74.7461C327.208 74.5532 327.45 74.3706 327.648 74.1983C327.84 74.0245 327.993 73.8544 328.106 73.688C328.225 73.5183 328.317 73.34 328.382 73.153C328.469 72.902 328.511 72.6613 328.508 72.431C328.505 72.2007 328.457 71.9889 328.365 71.7956C328.272 71.6023 328.138 71.4316 327.964 71.2834C327.794 71.1368 327.585 71.0241 327.337 70.9454C327.019 70.8447 326.728 70.8016 326.464 70.8162C326.2 70.8308 325.963 70.8949 325.753 71.0086C325.534 71.1304 325.343 71.3018 325.178 71.5227C325.015 71.7387 324.88 72.0017 324.772 72.3117L322.985 71.7451C323.147 71.2775 323.386 70.8646 323.703 70.5063C324.022 70.1431 324.397 69.8576 324.827 69.6499C325.252 69.4406 325.724 69.3173 326.244 69.28C326.769 69.2443 327.314 69.3162 327.88 69.4956C328.412 69.664 328.859 69.8906 329.224 70.1754C329.593 70.4617 329.874 70.7859 330.069 71.1479C330.258 71.5083 330.361 71.9015 330.379 72.3277C330.398 72.7489 330.329 73.1859 330.173 73.6387C330.055 73.9783 329.884 74.2899 329.659 74.5736C329.44 74.8539 329.18 75.1184 328.879 75.3671C328.573 75.6141 328.229 75.8519 327.847 76.0803C327.47 76.3102 327.064 76.5422 326.631 76.7761L323.333 78.5653L328.382 80.166L327.888 81.5908Z" fill="#C9C9C9"/>
<line x1="105.392" y1="31.95" x2="664.996" y2="30.5" stroke="#4D4B4D" stroke-width="3"/>
<path d="M193.658 17L192.025 8.54688H193.713L194.494 13.7266L194.627 14.7031L194.798 13.7266L195.9 8.54688H197.127L198.228 13.7109L198.408 14.7344L198.556 13.7031L199.314 8.54688H201.009L199.377 17H197.791L196.697 12.2031L196.502 11.1562L196.314 12.2031L195.244 17H193.658ZM205.869 17.1562C205.244 17.1562 204.671 17.0521 204.151 16.8438C203.635 16.6354 203.192 16.3464 202.823 15.9766C202.453 15.612 202.166 15.1823 201.963 14.6875C201.765 14.1875 201.666 13.6484 201.666 13.0703V12.75C201.666 12.0885 201.77 11.4896 201.979 10.9531C202.187 10.4167 202.474 9.95833 202.838 9.57812C203.203 9.19792 203.625 8.90625 204.104 8.70312C204.588 8.49479 205.104 8.39062 205.651 8.39062C206.26 8.39062 206.799 8.49479 207.268 8.70312C207.737 8.90625 208.13 9.1901 208.448 9.55469C208.765 9.92448 209.005 10.3646 209.166 10.875C209.328 11.3854 209.408 11.9427 209.408 12.5469V13.3516H203.549V13.3906C203.606 13.7604 203.695 14.0703 203.815 14.3203C203.935 14.5703 204.099 14.7943 204.307 14.9922C204.515 15.2005 204.76 15.362 205.041 15.4766C205.328 15.5911 205.64 15.6484 205.979 15.6484C206.442 15.6484 206.875 15.5599 207.276 15.3828C207.677 15.2005 208.007 14.9427 208.268 14.6094L209.268 15.5781C208.987 15.9844 208.554 16.349 207.971 16.6719C207.393 16.9948 206.692 17.1562 205.869 17.1562ZM205.643 9.90625C205.377 9.90625 205.13 9.95573 204.901 10.0547C204.677 10.1484 204.476 10.2839 204.299 10.4609C204.122 10.6432 203.974 10.862 203.854 11.1172C203.734 11.3724 203.645 11.6615 203.588 11.9844H207.565V11.8594C207.565 11.6146 207.52 11.3724 207.432 11.1328C207.343 10.888 207.218 10.6745 207.057 10.4922C206.901 10.3151 206.703 10.1745 206.463 10.0703C206.229 9.96094 205.955 9.90625 205.643 9.90625ZM211.323 8.54688H215.808V15.4531H218.292V17H211.323V15.4531H213.925V10.1016H211.323V8.54688ZM213.753 6.35938C213.753 6.20833 213.779 6.07031 213.831 5.94531C213.883 5.8151 213.959 5.70312 214.058 5.60938C214.151 5.52083 214.263 5.45312 214.393 5.40625C214.529 5.35417 214.68 5.32812 214.847 5.32812C215.128 5.32812 215.354 5.40104 215.526 5.54688C215.703 5.6875 215.805 5.86979 215.831 6.09375C215.867 6.32292 215.828 6.52344 215.714 6.69531C215.599 6.86198 215.433 6.97396 215.214 7.03125C215.104 7.13021 214.974 7.19531 214.823 7.22656C214.672 7.25781 214.505 7.24479 214.323 7.1875C214.136 7.13021 213.992 7.02865 213.893 6.88281C213.8 6.73177 213.753 6.55729 213.753 6.35938ZM219.621 12.7109C219.621 12.0703 219.699 11.487 219.855 10.9609C220.011 10.4297 220.238 9.97396 220.535 9.59375C220.832 9.21354 221.188 8.91927 221.605 8.71094C222.027 8.4974 222.501 8.39062 223.027 8.39062C223.339 8.39062 223.623 8.42448 223.878 8.49219C224.134 8.55469 224.365 8.64844 224.574 8.77344C224.709 8.85156 224.837 8.94531 224.957 9.05469C225.076 9.15885 225.188 9.27344 225.293 9.39844L225.371 8.54688H227.066V16.7656C227.066 17.3333 226.972 17.8359 226.785 18.2734C226.602 18.7161 226.345 19.0911 226.011 19.3984C225.673 19.7005 225.266 19.9297 224.793 20.0859C224.324 20.2474 223.806 20.3281 223.238 20.3281C222.998 20.3281 222.735 20.3021 222.449 20.25C222.162 20.1979 221.876 20.1172 221.589 20.0078C221.303 19.8984 221.03 19.7552 220.769 19.5781C220.509 19.401 220.285 19.1875 220.097 18.9375L220.98 17.8047C221.131 17.987 221.293 18.1432 221.464 18.2734C221.641 18.4089 221.821 18.5182 222.003 18.6016C222.186 18.6849 222.371 18.7448 222.558 18.7812C222.746 18.8229 222.936 18.8438 223.128 18.8438C223.462 18.8438 223.756 18.7969 224.011 18.7031C224.272 18.6094 224.493 18.474 224.675 18.2969C224.842 18.125 224.97 17.9141 225.058 17.6641C225.152 17.4141 225.199 17.1302 225.199 16.8125V16.2266C225.089 16.3411 224.975 16.4479 224.855 16.5469C224.74 16.6458 224.615 16.7318 224.48 16.8047C224.277 16.9193 224.053 17.0052 223.808 17.0625C223.563 17.125 223.298 17.1562 223.011 17.1562C222.49 17.1562 222.022 17.0495 221.605 16.8359C221.188 16.6172 220.832 16.3151 220.535 15.9297C220.243 15.5495 220.016 15.099 219.855 14.5781C219.699 14.0521 219.621 13.4844 219.621 12.875V12.7109ZM221.496 12.875C221.496 13.25 221.532 13.6042 221.605 13.9375C221.683 14.2708 221.806 14.5599 221.972 14.8047C222.134 15.0599 222.339 15.2604 222.589 15.4062C222.839 15.5469 223.136 15.6172 223.48 15.6172C223.694 15.6172 223.886 15.5938 224.058 15.5469C224.235 15.5 224.394 15.4349 224.535 15.3516C224.675 15.263 224.8 15.1562 224.91 15.0312C225.019 14.9062 225.115 14.7682 225.199 14.6172V10.9141C225.115 10.7578 225.014 10.6172 224.894 10.4922C224.78 10.3672 224.647 10.2604 224.496 10.1719C224.36 10.099 224.209 10.0417 224.043 10C223.876 9.95312 223.694 9.92969 223.496 9.92969C223.147 9.92969 222.847 10.0026 222.597 10.1484C222.347 10.2943 222.141 10.4948 221.98 10.75C221.813 11.0052 221.691 11.3021 221.613 11.6406C221.535 11.974 221.496 12.3307 221.496 12.7109V12.875ZM230.699 9.75C230.809 9.58333 230.931 9.42969 231.067 9.28906C231.202 9.14844 231.345 9.02604 231.496 8.92188C231.731 8.75 231.988 8.61979 232.27 8.53125C232.556 8.4375 232.858 8.39062 233.176 8.39062C233.619 8.39062 234.022 8.45573 234.387 8.58594C234.757 8.71615 235.072 8.91927 235.332 9.19531C235.593 9.47135 235.793 9.82552 235.934 10.2578C236.08 10.6849 236.153 11.1979 236.153 11.7969V17H234.285V11.7812C234.285 11.4688 234.246 11.1953 234.168 10.9609C234.095 10.7266 233.986 10.5365 233.84 10.3906C233.689 10.2344 233.504 10.1198 233.285 10.0469C233.072 9.96875 232.824 9.92969 232.543 9.92969C232.324 9.92969 232.116 9.95573 231.918 10.0078C231.725 10.0599 231.548 10.1354 231.387 10.2344C231.251 10.3125 231.124 10.4062 231.004 10.5156C230.89 10.625 230.788 10.7474 230.699 10.8828V17H228.832V5H230.699V9.75ZM241.552 6.48438V8.54688H244.731V9.94531H241.552V13.9844C241.552 14.2969 241.588 14.5599 241.661 14.7734C241.739 14.9818 241.846 15.1458 241.981 15.2656C242.117 15.3906 242.278 15.4792 242.466 15.5312C242.653 15.5833 242.859 15.6094 243.083 15.6094C243.244 15.6094 243.411 15.6016 243.583 15.5859C243.755 15.5703 243.921 15.5495 244.083 15.5234C244.239 15.5026 244.385 15.4792 244.52 15.4531C244.661 15.4219 244.778 15.3958 244.872 15.375L245.075 16.6641C244.94 16.7474 244.776 16.8203 244.583 16.8828C244.395 16.9401 244.192 16.9896 243.973 17.0312C243.755 17.0729 243.526 17.1042 243.286 17.125C243.052 17.151 242.817 17.1641 242.583 17.1641C242.156 17.1641 241.763 17.1068 241.403 16.9922C241.049 16.8724 240.744 16.6875 240.489 16.4375C240.234 16.1927 240.033 15.8776 239.888 15.4922C239.747 15.1068 239.677 14.6432 239.677 14.1016V9.94531H237.63V8.54688H239.677V6.48438H241.552ZM251.826 17H249.943V7.9375L247.029 9.00781V7.35938L251.708 5.625H251.826V17ZM259.858 16.7578C259.858 17.3203 259.72 17.8906 259.443 18.4688C259.173 19.0521 258.813 19.5443 258.365 19.9453L257.318 19.3906C257.542 19.0208 257.714 18.6302 257.834 18.2188C257.959 17.8073 258.022 17.3438 258.022 16.8281V15.1797H259.858V16.7578ZM269.764 17H267.882V7.9375L264.968 9.00781V7.35938L269.647 5.625H269.764V17Z" fill="#C9C9C9"/>
<path d="M706.089 33.6908C706.106 33.0765 706.209 32.509 706.4 31.9883C706.591 31.4625 706.861 31.0069 707.21 30.6216C707.553 30.2363 707.97 29.9344 708.46 29.7157C708.951 29.497 709.506 29.3877 710.125 29.3877C710.745 29.3877 711.294 29.497 711.773 29.7157C712.257 29.9344 712.663 30.2363 712.991 30.6216C713.314 31.0069 713.557 31.4625 713.72 31.9883C713.884 32.509 713.957 33.0765 713.941 33.6908L713.936 33.8548C713.92 34.4744 713.816 35.0445 713.625 35.5652C713.435 36.0858 713.167 36.5388 712.824 36.9241C712.48 37.3094 712.061 37.6113 711.565 37.83C711.075 38.0487 710.523 38.158 709.908 38.158C709.288 38.158 708.737 38.0487 708.253 37.83C707.769 37.6113 707.366 37.3094 707.043 36.9241C706.714 36.5388 706.468 36.0858 706.305 35.5652C706.142 35.0445 706.068 34.4744 706.085 33.8548L706.089 33.6908ZM707.952 33.8548C707.942 34.2349 707.972 34.5942 708.041 34.9326C708.115 35.271 708.235 35.5678 708.4 35.8229C708.56 36.078 708.768 36.2811 709.024 36.4321C709.281 36.5778 709.589 36.6507 709.948 36.6507C710.297 36.6507 710.604 36.5778 710.868 36.4321C711.133 36.2811 711.351 36.078 711.525 35.8229C711.698 35.5678 711.829 35.271 711.916 34.9326C712.008 34.5942 712.059 34.2349 712.069 33.8548L712.074 33.6908C712.083 33.3212 712.051 32.9671 711.977 32.6287C711.902 32.2903 711.788 31.9935 711.633 31.7384C711.468 31.4833 711.257 31.2802 711.001 31.1292C710.75 30.9783 710.445 30.9028 710.085 30.9028C709.731 30.9028 709.422 30.9783 709.157 31.1292C708.898 31.2802 708.682 31.4833 708.508 31.7384C708.33 31.9935 708.194 32.2903 708.102 32.6287C708.015 32.9671 707.966 33.3212 707.956 33.6908L707.952 33.8548ZM720.827 37.994L720.749 36.8147C720.452 37.2365 720.094 37.5671 719.676 37.8066C719.258 38.0409 718.794 38.158 718.284 38.158C717.846 38.158 717.447 38.0903 717.086 37.955C716.73 37.8144 716.426 37.5983 716.174 37.3068C715.926 37.0152 715.738 36.6429 715.61 36.19C715.481 35.7318 715.425 35.1851 715.442 34.5499L715.575 29.5439H717.442L717.309 34.5655C717.299 34.956 717.318 35.284 717.369 35.5496C717.419 35.8099 717.505 36.0182 717.626 36.1743C717.746 36.3357 717.902 36.4503 718.093 36.518C718.284 36.5857 718.51 36.6195 718.77 36.6195C719.041 36.6195 719.284 36.5909 719.499 36.5336C719.714 36.4711 719.904 36.3878 720.068 36.2837C720.206 36.19 720.329 36.0806 720.436 35.9557C720.544 35.8255 720.636 35.6823 720.713 35.5261L720.872 29.5439H722.747L722.523 37.994H720.827ZM728.287 27.4821L728.232 29.5439H731.411L731.374 30.9418H728.195L728.088 34.9795C728.079 35.2918 728.109 35.5548 728.176 35.7682C728.249 35.9765 728.351 36.1405 728.483 36.2603C728.615 36.3852 728.774 36.4737 728.961 36.5258C729.147 36.5778 729.352 36.6039 729.576 36.6039C729.737 36.6039 729.904 36.5961 730.076 36.5805C730.249 36.5648 730.416 36.544 730.578 36.518C730.735 36.4971 730.881 36.4737 731.017 36.4477C731.159 36.4164 731.277 36.3904 731.371 36.3696L731.54 37.6582C731.402 37.7415 731.236 37.8144 731.042 37.8769C730.853 37.9341 730.648 37.9836 730.429 38.0253C730.209 38.0669 729.979 38.0981 729.739 38.119C729.504 38.145 729.269 38.158 729.034 38.158C728.607 38.158 728.216 38.1008 727.859 37.9862C727.508 37.8665 727.209 37.6816 726.96 37.4317C726.711 37.187 726.519 36.872 726.384 36.4867C726.253 36.1015 726.195 35.6381 726.209 35.0966L726.32 30.9418H724.273L724.31 29.5439H726.357L726.412 27.4821H728.287ZM733.156 41.2429L733.467 29.5439H735.186L735.233 30.4107C735.351 30.2702 735.48 30.1426 735.618 30.0281C735.756 29.9135 735.905 29.8146 736.063 29.7313C736.269 29.622 736.496 29.5387 736.742 29.4814C736.988 29.4189 737.25 29.3877 737.526 29.3877C738.067 29.3877 738.541 29.4918 738.947 29.7001C739.358 29.9083 739.699 30.2025 739.97 30.5826C740.236 30.9626 740.435 31.4182 740.567 31.9493C740.699 32.4751 740.756 33.0557 740.74 33.6908L740.735 33.8548C740.719 34.464 740.631 35.0315 740.471 35.5574C740.317 36.0832 740.094 36.5362 739.802 36.9163C739.511 37.3016 739.157 37.6035 738.739 37.8222C738.322 38.0409 737.848 38.1502 737.317 38.1502C737.014 38.1502 736.737 38.119 736.483 38.0565C736.235 37.994 736.005 37.9029 735.795 37.7832C735.672 37.7103 735.554 37.627 735.442 37.5332C735.33 37.4395 735.226 37.338 735.13 37.2287L735.024 41.2429H733.156ZM738.872 33.6908C738.882 33.3108 738.853 32.9541 738.784 32.6209C738.72 32.2825 738.613 31.9883 738.463 31.7384C738.308 31.4885 738.108 31.2906 737.862 31.1449C737.616 30.9991 737.318 30.9262 736.969 30.9262C736.776 30.9262 736.596 30.947 736.428 30.9887C736.261 31.0303 736.111 31.0902 735.978 31.1683C735.825 31.2516 735.69 31.3557 735.572 31.4807C735.459 31.6056 735.359 31.7462 735.271 31.9024L735.172 35.6589C735.241 35.8047 735.326 35.9374 735.427 36.0572C735.528 36.1769 735.645 36.2811 735.778 36.3696C735.916 36.4529 736.073 36.5206 736.249 36.5726C736.425 36.6195 736.62 36.6429 736.833 36.6429C737.182 36.6429 737.481 36.57 737.73 36.4243C737.984 36.2733 738.192 36.0702 738.355 35.8151C738.523 35.5548 738.649 35.258 738.73 34.9248C738.812 34.5864 738.858 34.2297 738.868 33.8548L738.872 33.6908ZM747.735 37.994L747.657 36.8147C747.36 37.2365 747.002 37.5671 746.584 37.8066C746.166 38.0409 745.702 38.158 745.192 38.158C744.754 38.158 744.355 38.0903 743.994 37.955C743.639 37.8144 743.334 37.5983 743.082 37.3068C742.834 37.0152 742.646 36.6429 742.518 36.19C742.389 35.7318 742.333 35.1851 742.35 34.5499L742.483 29.5439H744.35L744.217 34.5655C744.207 34.956 744.227 35.284 744.277 35.5496C744.327 35.8099 744.413 36.0182 744.534 36.1743C744.654 36.3357 744.81 36.4503 745.001 36.518C745.192 36.5857 745.418 36.6195 745.678 36.6195C745.949 36.6195 746.192 36.5909 746.407 36.5336C746.622 36.4711 746.812 36.3878 746.976 36.2837C747.114 36.19 747.237 36.0806 747.344 35.9557C747.452 35.8255 747.544 35.6823 747.621 35.5261L747.78 29.5439H749.655L749.431 37.994H747.735ZM755.195 27.4821L755.14 29.5439H758.32L758.283 30.9418H755.103L754.996 34.9795C754.987 35.2918 755.017 35.5548 755.084 35.7682C755.157 35.9765 755.259 36.1405 755.391 36.2603C755.524 36.3852 755.683 36.4737 755.869 36.5258C756.055 36.5778 756.26 36.6039 756.484 36.6039C756.645 36.6039 756.812 36.5961 756.984 36.5805C757.157 36.5648 757.324 36.544 757.486 36.518C757.643 36.4971 757.789 36.4737 757.925 36.4477C758.067 36.4164 758.185 36.3904 758.279 36.3696L758.448 37.6582C758.31 37.7415 758.144 37.8144 757.95 37.8769C757.761 37.9341 757.557 37.9836 757.337 38.0253C757.117 38.0669 756.887 38.0981 756.647 38.119C756.412 38.145 756.177 38.158 755.943 38.158C755.516 38.158 755.124 38.1008 754.767 37.9862C754.416 37.8665 754.117 37.6816 753.868 37.4317C753.619 37.187 753.427 36.872 753.292 36.4867C753.161 36.1015 753.103 35.6381 753.118 35.0966L753.228 30.9418H751.181L751.218 29.5439H753.265L753.32 27.4821H755.195ZM765.19 37.994H763.307L763.547 28.9347L760.605 30.0046L760.649 28.3568L765.374 26.623H765.492L765.19 37.994Z" fill="#C9C9C9"/>
<rect width="50" height="50" rx="25" transform="matrix(1 0 0 -1 640 57.7857)" fill="#5CAFFD"/>
<path d="M702.089 199.691C702.106 199.076 702.209 198.509 702.4 197.988C702.591 197.462 702.861 197.007 703.21 196.622C703.553 196.236 703.97 195.934 704.46 195.716C704.951 195.497 705.506 195.388 706.125 195.388C706.745 195.388 707.294 195.497 707.773 195.716C708.257 195.934 708.663 196.236 708.991 196.622C709.314 197.007 709.557 197.462 709.72 197.988C709.884 198.509 709.957 199.076 709.941 199.691L709.936 199.855C709.92 200.474 709.816 201.045 709.625 201.565C709.435 202.086 709.167 202.539 708.824 202.924C708.48 203.309 708.061 203.611 707.565 203.83C707.075 204.049 706.523 204.158 705.908 204.158C705.288 204.158 704.737 204.049 704.253 203.83C703.769 203.611 703.366 203.309 703.043 202.924C702.714 202.539 702.468 202.086 702.305 201.565C702.142 201.045 702.068 200.474 702.085 199.855L702.089 199.691ZM703.952 199.855C703.942 200.235 703.972 200.594 704.041 200.933C704.115 201.271 704.235 201.568 704.4 201.823C704.56 202.078 704.768 202.281 705.024 202.432C705.281 202.578 705.589 202.651 705.948 202.651C706.297 202.651 706.604 202.578 706.868 202.432C707.133 202.281 707.351 202.078 707.525 201.823C707.698 201.568 707.829 201.271 707.916 200.933C708.008 200.594 708.059 200.235 708.069 199.855L708.074 199.691C708.083 199.321 708.051 198.967 707.977 198.629C707.902 198.29 707.788 197.994 707.633 197.738C707.468 197.483 707.257 197.28 707.001 197.129C706.75 196.978 706.445 196.903 706.085 196.903C705.731 196.903 705.422 196.978 705.157 197.129C704.898 197.28 704.682 197.483 704.508 197.738C704.33 197.994 704.194 198.29 704.102 198.629C704.015 198.967 703.966 199.321 703.956 199.691L703.952 199.855ZM716.827 203.994L716.749 202.815C716.452 203.236 716.094 203.567 715.676 203.807C715.258 204.041 714.794 204.158 714.284 204.158C713.846 204.158 713.447 204.09 713.086 203.955C712.73 203.814 712.426 203.598 712.174 203.307C711.926 203.015 711.738 202.643 711.61 202.19C711.481 201.732 711.425 201.185 711.442 200.55L711.575 195.544H713.442L713.309 200.566C713.299 200.956 713.318 201.284 713.369 201.55C713.419 201.81 713.505 202.018 713.626 202.174C713.746 202.336 713.902 202.45 714.093 202.518C714.284 202.586 714.51 202.62 714.77 202.62C715.041 202.62 715.284 202.591 715.499 202.534C715.714 202.471 715.904 202.388 716.068 202.284C716.206 202.19 716.329 202.081 716.436 201.956C716.544 201.826 716.636 201.682 716.713 201.526L716.872 195.544H718.747L718.523 203.994H716.827ZM724.287 193.482L724.232 195.544H727.411L727.374 196.942H724.195L724.088 200.979C724.079 201.292 724.109 201.555 724.176 201.768C724.249 201.976 724.351 202.141 724.483 202.26C724.615 202.385 724.774 202.474 724.961 202.526C725.147 202.578 725.352 202.604 725.576 202.604C725.737 202.604 725.904 202.596 726.076 202.58C726.249 202.565 726.416 202.544 726.578 202.518C726.735 202.497 726.881 202.474 727.017 202.448C727.159 202.416 727.277 202.39 727.371 202.37L727.54 203.658C727.402 203.742 727.236 203.814 727.042 203.877C726.853 203.934 726.648 203.984 726.429 204.025C726.209 204.067 725.979 204.098 725.739 204.119C725.504 204.145 725.269 204.158 725.034 204.158C724.607 204.158 724.216 204.101 723.859 203.986C723.508 203.866 723.209 203.682 722.96 203.432C722.711 203.187 722.519 202.872 722.384 202.487C722.253 202.101 722.195 201.638 722.209 201.097L722.32 196.942H720.273L720.31 195.544H722.357L722.412 193.482H724.287ZM729.156 207.243L729.467 195.544H731.186L731.233 196.411C731.351 196.27 731.48 196.143 731.618 196.028C731.756 195.914 731.905 195.815 732.063 195.731C732.269 195.622 732.496 195.539 732.742 195.481C732.988 195.419 733.25 195.388 733.526 195.388C734.067 195.388 734.541 195.492 734.947 195.7C735.358 195.908 735.699 196.202 735.97 196.583C736.236 196.963 736.435 197.418 736.567 197.949C736.699 198.475 736.756 199.056 736.74 199.691L736.735 199.855C736.719 200.464 736.631 201.032 736.471 201.557C736.317 202.083 736.094 202.536 735.802 202.916C735.511 203.302 735.157 203.604 734.739 203.822C734.322 204.041 733.848 204.15 733.317 204.15C733.014 204.15 732.737 204.119 732.483 204.056C732.235 203.994 732.005 203.903 731.795 203.783C731.672 203.71 731.554 203.627 731.442 203.533C731.33 203.44 731.226 203.338 731.13 203.229L731.024 207.243H729.156ZM734.872 199.691C734.882 199.311 734.853 198.954 734.784 198.621C734.72 198.282 734.613 197.988 734.463 197.738C734.308 197.488 734.108 197.291 733.862 197.145C733.616 196.999 733.318 196.926 732.969 196.926C732.776 196.926 732.596 196.947 732.428 196.989C732.261 197.03 732.111 197.09 731.978 197.168C731.825 197.252 731.69 197.356 731.572 197.481C731.459 197.606 731.359 197.746 731.271 197.902L731.172 201.659C731.241 201.805 731.326 201.937 731.427 202.057C731.528 202.177 731.645 202.281 731.778 202.37C731.916 202.453 732.073 202.521 732.249 202.573C732.425 202.62 732.62 202.643 732.833 202.643C733.182 202.643 733.481 202.57 733.73 202.424C733.984 202.273 734.192 202.07 734.355 201.815C734.523 201.555 734.649 201.258 734.73 200.925C734.812 200.586 734.858 200.23 734.868 199.855L734.872 199.691ZM743.735 203.994L743.657 202.815C743.36 203.236 743.002 203.567 742.584 203.807C742.166 204.041 741.702 204.158 741.192 204.158C740.754 204.158 740.355 204.09 739.994 203.955C739.639 203.814 739.334 203.598 739.082 203.307C738.834 203.015 738.646 202.643 738.518 202.19C738.389 201.732 738.333 201.185 738.35 200.55L738.483 195.544H740.35L740.217 200.566C740.207 200.956 740.227 201.284 740.277 201.55C740.327 201.81 740.413 202.018 740.534 202.174C740.654 202.336 740.81 202.45 741.001 202.518C741.192 202.586 741.418 202.62 741.678 202.62C741.949 202.62 742.192 202.591 742.407 202.534C742.622 202.471 742.812 202.388 742.976 202.284C743.114 202.19 743.237 202.081 743.344 201.956C743.452 201.826 743.544 201.682 743.621 201.526L743.78 195.544H745.655L745.431 203.994H743.735ZM751.195 193.482L751.14 195.544H754.32L754.283 196.942H751.103L750.996 200.979C750.987 201.292 751.017 201.555 751.084 201.768C751.157 201.976 751.259 202.141 751.391 202.26C751.524 202.385 751.683 202.474 751.869 202.526C752.055 202.578 752.26 202.604 752.484 202.604C752.645 202.604 752.812 202.596 752.984 202.58C753.157 202.565 753.324 202.544 753.486 202.518C753.643 202.497 753.789 202.474 753.925 202.448C754.067 202.416 754.185 202.39 754.279 202.37L754.448 203.658C754.31 203.742 754.144 203.814 753.95 203.877C753.761 203.934 753.557 203.984 753.337 204.025C753.117 204.067 752.887 204.098 752.647 204.119C752.412 204.145 752.177 204.158 751.943 204.158C751.516 204.158 751.124 204.101 750.767 203.986C750.416 203.866 750.117 203.682 749.868 203.432C749.619 203.187 749.427 202.872 749.292 202.487C749.161 202.101 749.103 201.638 749.118 201.097L749.228 196.942H747.181L747.218 195.544H749.265L749.32 193.482H751.195ZM763.377 203.994H755.744L755.779 202.698L759.589 198.668C759.905 198.329 760.171 198.027 760.386 197.762C760.602 197.491 760.778 197.244 760.914 197.02C761.045 196.796 761.139 196.588 761.196 196.395C761.259 196.197 761.293 195.999 761.298 195.802C761.305 195.536 761.272 195.294 761.2 195.075C761.128 194.857 761.018 194.669 760.871 194.513C760.724 194.357 760.545 194.234 760.334 194.146C760.128 194.057 759.895 194.013 759.634 194.013C759.301 194.013 759.011 194.06 758.763 194.154C758.516 194.247 758.309 194.38 758.143 194.552C757.972 194.734 757.841 194.956 757.751 195.216C757.661 195.471 757.611 195.763 757.603 196.091H755.728C755.741 195.596 755.844 195.13 756.038 194.693C756.232 194.25 756.503 193.865 756.85 193.537C757.192 193.209 757.605 192.948 758.09 192.756C758.579 192.563 759.121 192.467 759.714 192.467C760.272 192.467 760.767 192.548 761.2 192.709C761.639 192.87 762.005 193.094 762.3 193.381C762.589 193.667 762.806 194.011 762.952 194.411C763.098 194.807 763.164 195.244 763.151 195.723C763.142 196.083 763.073 196.432 762.944 196.77C762.821 197.103 762.653 197.434 762.441 197.762C762.224 198.09 761.968 198.42 761.673 198.754C761.382 199.087 761.066 199.431 760.723 199.785L758.12 202.487H763.417L763.377 203.994Z" fill="#C9C9C9"/>
<rect width="50" height="50" rx="25" transform="matrix(1 0 0 -1 640 223.443)" fill="#FE4E5A"/>
<rect width="50" height="50" rx="25" transform="matrix(1 0 0 -1 79.9999 223)" fill="white"/>
<path d="M2.97275 195.544H7.45713L7.27393 202.448H9.75831L9.71728 203.994H2.74853L2.78956 202.448H5.39112L5.53307 197.098H2.93151L2.97275 195.544ZM5.46046 193.357C5.46447 193.206 5.49417 193.068 5.54957 192.943C5.60511 192.813 5.6836 192.701 5.78505 192.607C5.88114 192.519 5.99492 192.451 6.12637 192.404C6.26317 192.352 6.4149 192.326 6.58157 192.326C6.86282 192.326 7.08745 192.399 7.25545 192.545C7.42881 192.685 7.52553 192.868 7.54563 193.092C7.57601 193.321 7.53163 193.521 7.41249 193.693C7.29349 193.86 7.12385 193.972 6.90358 194.029C6.79158 194.128 6.65964 194.193 6.50777 194.224C6.3559 194.255 6.18958 194.242 6.00881 194.185C5.82283 194.128 5.68229 194.026 5.5872 193.88C5.49746 193.729 5.45521 193.555 5.46046 193.357ZM11.2882 203.994L11.5124 195.544H13.1999L13.2852 196.747C13.4041 196.585 13.533 196.437 13.672 196.301C13.8164 196.161 13.9681 196.036 14.1273 195.927C14.3818 195.755 14.6588 195.622 14.9582 195.528C15.2575 195.435 15.5713 195.388 15.8994 195.388C16.3317 195.388 16.7259 195.45 17.0819 195.575C17.438 195.7 17.74 195.898 17.988 196.169C18.2361 196.439 18.4248 196.786 18.5542 197.207C18.6838 197.624 18.7407 198.129 18.725 198.722L18.5851 203.994H16.7179L16.857 198.754C16.8662 198.405 16.8349 198.113 16.763 197.879C16.6911 197.645 16.5815 197.457 16.4341 197.317C16.2868 197.176 16.1072 197.077 15.8951 197.02C15.6833 196.957 15.4393 196.926 15.1633 196.926C14.9341 196.926 14.7197 196.957 14.5201 197.02C14.3207 197.077 14.1388 197.16 13.9745 197.27C13.8472 197.353 13.7274 197.455 13.6148 197.574C13.5023 197.694 13.4024 197.824 13.3154 197.965L13.1554 203.994H11.2882ZM20.187 207.243L20.4974 195.544H22.2162L22.2635 196.411C22.3818 196.27 22.5102 196.143 22.6487 196.028C22.7871 195.914 22.9356 195.815 23.094 195.731C23.3001 195.622 23.5262 195.539 23.7725 195.481C24.019 195.419 24.2802 195.388 24.5563 195.388C25.0979 195.388 25.5717 195.492 25.9777 195.7C26.3888 195.908 26.73 196.202 27.0011 196.583C27.2671 196.963 27.4659 197.418 27.5977 197.949C27.7296 198.475 27.7871 199.056 27.7702 199.691L27.7659 199.855C27.7497 200.464 27.6617 201.032 27.5019 201.557C27.3474 202.083 27.1244 202.536 26.8331 202.916C26.5416 203.302 26.1872 203.604 25.77 203.822C25.3527 204.041 24.8784 204.15 24.3472 204.15C24.0451 204.15 23.7673 204.119 23.5137 204.056C23.2654 203.994 23.036 203.903 22.8257 203.783C22.7026 203.71 22.585 203.627 22.4729 203.533C22.3608 203.44 22.2568 203.338 22.1607 203.229L22.0542 207.243H20.187ZM25.903 199.691C25.9131 199.311 25.8835 198.954 25.8142 198.621C25.7503 198.282 25.6435 197.988 25.4939 197.738C25.3391 197.488 25.1386 197.291 24.8925 197.145C24.6463 196.999 24.3488 196.926 23.9998 196.926C23.8071 196.926 23.6269 196.947 23.4591 196.989C23.2913 197.03 23.1413 197.09 23.009 197.168C22.8558 197.252 22.7202 197.356 22.6023 197.481C22.4896 197.606 22.3895 197.746 22.302 197.902L22.2024 201.659C22.2714 201.805 22.3564 201.937 22.4574 202.057C22.5584 202.177 22.6754 202.281 22.8085 202.37C22.9469 202.453 23.104 202.521 23.2797 202.573C23.4555 202.62 23.6502 202.643 23.8638 202.643C24.2127 202.643 24.5115 202.57 24.7602 202.424C25.0142 202.273 25.2227 202.07 25.3857 201.815C25.5541 201.555 25.6791 201.258 25.7609 200.925C25.8428 200.586 25.8887 200.23 25.8987 199.855L25.903 199.691ZM34.766 203.994L34.6879 202.815C34.3903 203.236 34.0326 203.567 33.6147 203.807C33.1971 204.041 32.733 204.158 32.2226 204.158C31.7851 204.158 31.3859 204.09 31.0249 203.955C30.6692 203.814 30.3651 203.598 30.1124 203.307C29.8649 203.015 29.6769 202.643 29.5483 202.19C29.4198 201.732 29.364 201.185 29.3809 200.55L29.5137 195.544H31.3809L31.2476 200.566C31.2373 200.956 31.2572 201.284 31.3075 201.55C31.3578 201.81 31.4435 202.018 31.5643 202.174C31.685 202.336 31.8408 202.45 32.0318 202.518C32.2227 202.586 32.4483 202.62 32.7087 202.62C32.9796 202.62 33.2225 202.591 33.4376 202.534C33.6528 202.471 33.8425 202.388 34.0067 202.284C34.1446 202.19 34.2673 202.081 34.3748 201.956C34.4824 201.826 34.5748 201.682 34.6518 201.526L34.8106 195.544H36.6856L36.4613 203.994H34.766ZM42.2253 193.482L42.1706 195.544H45.3502L45.3132 196.942H42.1335L42.0263 200.979C42.018 201.292 42.0475 201.555 42.1148 201.768C42.1874 201.976 42.2898 202.141 42.422 202.26C42.5541 202.385 42.7132 202.474 42.8994 202.526C43.0855 202.578 43.2905 202.604 43.5145 202.604C43.6759 202.604 43.8428 202.596 44.0151 202.58C44.1874 202.565 44.3546 202.544 44.5168 202.518C44.6736 202.497 44.82 202.474 44.9561 202.448C45.0976 202.416 45.2154 202.39 45.3098 202.37L45.4787 203.658C45.3411 203.742 45.1751 203.814 44.9807 203.877C44.7917 203.934 44.5872 203.984 44.3674 204.025C44.1475 204.067 43.9175 204.098 43.6774 204.119C43.4423 204.145 43.2076 204.158 42.9732 204.158C42.5461 204.158 42.1544 204.101 41.7981 203.986C41.4471 203.866 41.1473 203.682 40.8988 203.432C40.65 203.187 40.4579 202.872 40.3223 202.487C40.1919 202.101 40.1339 201.638 40.1482 201.097L40.2585 196.942H38.2116L38.2487 195.544H40.2956L40.3503 193.482H42.2253ZM54.4079 203.994H46.7751L46.8095 202.698L50.6195 198.668C50.9358 198.329 51.2016 198.027 51.417 197.762C51.6325 197.491 51.8084 197.244 51.9445 197.02C52.0755 196.796 52.1695 196.588 52.2267 196.395C52.2893 196.197 52.3232 195.999 52.3284 195.802C52.3355 195.536 52.3028 195.294 52.2305 195.075C52.1582 194.857 52.0486 194.669 51.9017 194.513C51.7548 194.357 51.5757 194.234 51.3645 194.146C51.1585 194.057 50.9253 194.013 50.6649 194.013C50.3316 194.013 50.0413 194.06 49.794 194.154C49.5467 194.247 49.3401 194.38 49.1741 194.552C49.0026 194.734 48.8717 194.956 48.7815 195.216C48.6913 195.471 48.6419 195.763 48.6332 196.091H46.7582C46.7714 195.596 46.8749 195.13 47.0688 194.693C47.2628 194.25 47.5334 193.865 47.8807 193.537C48.2227 193.209 48.6359 192.948 49.1202 192.756C49.6097 192.563 50.1513 192.467 50.745 192.467C51.3023 192.467 51.7976 192.548 52.2308 192.709C52.6692 192.87 53.0357 193.094 53.3302 193.381C53.6194 193.667 53.8369 194.011 53.9825 194.411C54.1282 194.807 54.1948 195.244 54.182 195.723C54.1725 196.083 54.1034 196.432 53.9746 196.77C53.8512 197.103 53.6835 197.434 53.4717 197.762C53.2547 198.09 52.9985 198.42 52.7032 198.754C52.4131 199.087 52.0967 199.431 51.754 199.785L49.151 202.487H54.4479L54.4079 203.994Z" fill="#C9C9C9"/>
<rect width="50" height="50" rx="25" transform="matrix(1 0 0 -1 79.9999 57.3429)" fill="white"/>
<path d="M1.97275 29.5439H6.45713L6.27393 36.4477H8.75831L8.71728 37.994H1.74853L1.78956 36.4477H4.39112L4.53307 31.098H1.93151L1.97275 29.5439ZM4.46046 27.3571C4.46447 27.2061 4.49417 27.0682 4.54957 26.9432C4.60511 26.8131 4.6836 26.7011 4.78505 26.6074C4.88114 26.5189 4.99492 26.4512 5.12637 26.4043C5.26317 26.3523 5.4149 26.3263 5.58157 26.3263C5.86282 26.3263 6.08745 26.3991 6.25545 26.5449C6.42881 26.6855 6.52553 26.8677 6.54563 27.0916C6.57601 27.3207 6.53163 27.5211 6.41249 27.693C6.29349 27.8596 6.12385 27.9715 5.90358 28.0288C5.79158 28.1277 5.65964 28.1928 5.50777 28.224C5.3559 28.2553 5.18958 28.2422 5.00881 28.185C4.82283 28.1277 4.68229 28.0262 4.5872 27.8804C4.49746 27.7294 4.45521 27.555 4.46046 27.3571ZM10.2882 37.994L10.5124 29.5439H12.1999L12.2852 30.7466C12.4041 30.5852 12.533 30.4368 12.672 30.3014C12.8164 30.1608 12.9681 30.0359 13.1273 29.9265C13.3818 29.7547 13.6588 29.622 13.9582 29.5282C14.2575 29.4345 14.5713 29.3877 14.8994 29.3877C15.3317 29.3877 15.7259 29.4502 16.0819 29.5751C16.438 29.7001 16.74 29.8979 16.988 30.1686C17.2361 30.4394 17.4248 30.7856 17.5542 31.2073C17.6838 31.6239 17.7407 32.1289 17.725 32.7224L17.5851 37.994H15.7179L15.857 32.7537C15.8662 32.4048 15.8349 32.1133 15.763 31.879C15.6911 31.6447 15.5815 31.4573 15.4341 31.3167C15.2868 31.1761 15.1072 31.0772 14.8951 31.0199C14.6833 30.9574 14.4393 30.9262 14.1633 30.9262C13.9341 30.9262 13.7197 30.9574 13.5201 31.0199C13.3207 31.0772 13.1388 31.1605 12.9745 31.2698C12.8472 31.3531 12.7274 31.4547 12.6148 31.5744C12.5023 31.6942 12.4024 31.8243 12.3154 31.9649L12.1554 37.994H10.2882ZM19.187 41.2429L19.4974 29.5439H21.2162L21.2635 30.4107C21.3818 30.2702 21.5102 30.1426 21.6487 30.0281C21.7871 29.9135 21.9356 29.8146 22.094 29.7313C22.3001 29.622 22.5262 29.5387 22.7725 29.4814C23.019 29.4189 23.2802 29.3877 23.5563 29.3877C24.0979 29.3877 24.5717 29.4918 24.9777 29.7001C25.3888 29.9083 25.73 30.2025 26.0011 30.5826C26.2671 30.9626 26.4659 31.4182 26.5977 31.9493C26.7296 32.4751 26.7871 33.0557 26.7702 33.6908L26.7659 33.8548C26.7497 34.464 26.6617 35.0315 26.5019 35.5574C26.3474 36.0832 26.1244 36.5362 25.8331 36.9163C25.5416 37.3016 25.1872 37.6035 24.77 37.8222C24.3527 38.0409 23.8784 38.1502 23.3472 38.1502C23.0451 38.1502 22.7673 38.119 22.5137 38.0565C22.2654 37.994 22.036 37.9029 21.8257 37.7832C21.7026 37.7103 21.585 37.627 21.4729 37.5332C21.3608 37.4395 21.2568 37.338 21.1607 37.2287L21.0542 41.2429H19.187ZM24.903 33.6908C24.9131 33.3108 24.8835 32.9541 24.8142 32.6209C24.7503 32.2825 24.6435 31.9883 24.4939 31.7384C24.3391 31.4885 24.1386 31.2906 23.8925 31.1449C23.6463 30.9991 23.3488 30.9262 22.9998 30.9262C22.8071 30.9262 22.6269 30.947 22.4591 30.9887C22.2913 31.0303 22.1413 31.0902 22.009 31.1683C21.8558 31.2516 21.7202 31.3557 21.6023 31.4807C21.4896 31.6056 21.3895 31.7462 21.302 31.9024L21.2024 35.6589C21.2714 35.8047 21.3564 35.9374 21.4574 36.0572C21.5584 36.1769 21.6754 36.2811 21.8085 36.3696C21.9469 36.4529 22.104 36.5206 22.2797 36.5726C22.4555 36.6195 22.6502 36.6429 22.8638 36.6429C23.2127 36.6429 23.5115 36.57 23.7602 36.4243C24.0142 36.2733 24.2227 36.0702 24.3857 35.8151C24.5541 35.5548 24.6791 35.258 24.7609 34.9248C24.8428 34.5864 24.8887 34.2297 24.8987 33.8548L24.903 33.6908ZM33.766 37.994L33.6879 36.8147C33.3903 37.2365 33.0326 37.5671 32.6147 37.8066C32.1971 38.0409 31.733 38.158 31.2226 38.158C30.7851 38.158 30.3859 38.0903 30.0249 37.955C29.6692 37.8144 29.3651 37.5983 29.1124 37.3068C28.8649 37.0152 28.6769 36.6429 28.5483 36.19C28.4198 35.7318 28.364 35.1851 28.3809 34.5499L28.5137 29.5439H30.3809L30.2476 34.5655C30.2373 34.956 30.2572 35.284 30.3075 35.5496C30.3578 35.8099 30.4435 36.0182 30.5643 36.1743C30.685 36.3357 30.8408 36.4503 31.0318 36.518C31.2227 36.5857 31.4483 36.6195 31.7087 36.6195C31.9796 36.6195 32.2225 36.5909 32.4376 36.5336C32.6528 36.4711 32.8425 36.3878 33.0067 36.2837C33.1446 36.19 33.2673 36.0806 33.3748 35.9557C33.4824 35.8255 33.5748 35.6823 33.6518 35.5261L33.8106 29.5439H35.6856L35.4613 37.994H33.766ZM41.2253 27.4821L41.1706 29.5439H44.3502L44.3132 30.9418H41.1335L41.0263 34.9795C41.018 35.2918 41.0475 35.5548 41.1148 35.7682C41.1874 35.9765 41.2898 36.1405 41.422 36.2603C41.5541 36.3852 41.7132 36.4737 41.8994 36.5258C42.0855 36.5778 42.2905 36.6039 42.5145 36.6039C42.6759 36.6039 42.8428 36.5961 43.0151 36.5805C43.1874 36.5648 43.3546 36.544 43.5168 36.518C43.6736 36.4971 43.82 36.4737 43.9561 36.4477C44.0976 36.4164 44.2154 36.3904 44.3098 36.3696L44.4787 37.6582C44.3411 37.7415 44.1751 37.8144 43.9807 37.8769C43.7917 37.9341 43.5872 37.9836 43.3674 38.0253C43.1475 38.0669 42.9175 38.0981 42.6774 38.119C42.4423 38.145 42.2076 38.158 41.9732 38.158C41.5461 38.158 41.1544 38.1008 40.7981 37.9862C40.4471 37.8665 40.1473 37.6816 39.8988 37.4317C39.65 37.187 39.4579 36.872 39.3223 36.4867C39.1919 36.1015 39.1339 35.6381 39.1482 35.0966L39.2585 30.9418H37.2116L37.2487 29.5439H39.2956L39.3503 27.4821H41.2253ZM51.2204 37.994H49.3376L49.578 28.9347L46.6355 30.0046L46.6792 28.3568L51.4049 26.623H51.5221L51.2204 37.994Z" fill="#C9C9C9"/>
</svg>
